<svg xmlns="http://www.w3.org/2000/svg" xmlns:xlink="http://www.w3.org/1999/xlink" width="906" height="498" contentScriptType="application/ecmascript" contentStyleType="text/css" style="width:906px;height:498px" preserveAspectRatio="none" version="1.1" viewBox="0 0 906 498" zoomAndPan="magnify"><defs><filter id="f1otzl8ai2ny4w" width="300%" height="300%" x="-1" y="-1"><feGaussianBlur result="blurOut" stdDeviation="2"/><feColorMatrix in="blurOut" result="blurOut2" type="matrix" values="0 0 0 0 0 0 0 0 0 0 0 0 0 0 0 0 0 0 .4 0"/><feOffset dx="4" dy="4" in="blurOut2" result="blurOut3"/><feBlend in="SourceGraphic" in2="blurOut3" mode="normal"/></filter></defs><g><rect id="NodeStore" width="92" height="48" x="90.249" y="24" fill="#FEFECE" filter="url(#f1otzl8ai2ny4w)" style="stroke:#a80036;stroke-width:1.5"/><ellipse cx="105.249" cy="40" fill="#B4A7E5" rx="11" ry="11" style="stroke:#a80036;stroke-width:1"/><path d="M101.1764,35.7651 L101.1764,33.6069 L108.5558,33.6069 L108.5558,35.7651 L106.0905,35.7651 L106.0905,43.8418 L108.5558,43.8418 L108.5558,46 L101.1764,46 L101.1764,43.8418 L103.6418,43.8418 L103.6418,35.7651 Z"/><text x="119.249" y="44.535" fill="#000" font-family="sans-serif" font-size="12" font-style="italic" lengthAdjust="spacingAndGlyphs" textLength="60">NodeStore</text><line style="stroke:#a80036;stroke-width:1.5" x1="91.249" x2="181.249" y1="56" y2="56"/><line style="stroke:#a80036;stroke-width:1.5" x1="91.249" x2="181.249" y1="64" y2="64"/><rect id="SegmentNodeStore" width="141" height="48" x="65.749" y="107" fill="#FEFECE" filter="url(#f1otzl8ai2ny4w)" style="stroke:#a80036;stroke-width:1.5"/><ellipse cx="80.749" cy="123" fill="#ADD1B2" rx="11" ry="11" style="stroke:#a80036;stroke-width:1"/><path d="M83.7218,128.6431 Q83.1408,128.9419 82.5016,129.0913 Q81.8625,129.2407 81.1569,129.2407 Q78.6501,129.2407 77.3302,127.5889 Q76.0104,125.937 76.0104,122.8159 Q76.0104,119.6865 77.3302,118.0347 Q78.6501,116.3828 81.1569,116.3828 Q81.8625,116.3828 82.5099,116.5322 Q83.1574,116.6816 83.7218,116.9805 L83.7218,119.7031 Q83.091,119.1221 82.4975,118.8523 Q81.904,118.5825 81.2731,118.5825 Q79.9284,118.5825 79.2436,119.6492 Q78.5588,120.7158 78.5588,122.8159 Q78.5588,124.9077 79.2436,125.9744 Q79.9284,127.041 81.2731,127.041 Q81.904,127.041 82.4975,126.7712 Q83.091,126.5015 83.7218,125.9204 Z"/><text x="94.749" y="127.535" fill="#000" font-family="sans-serif" font-size="12" lengthAdjust="spacingAndGlyphs" textLength="109">SegmentNodeStore</text><line style="stroke:#a80036;stroke-width:1.5" x1="66.749" x2="205.749" y1="139" y2="139"/><line style="stroke:#a80036;stroke-width:1.5" x1="66.749" x2="205.749" y1="147" y2="147"/><rect id="SegmentStore" width="110" height="48" x="494.749" y="149" fill="#FEFECE" filter="url(#f1otzl8ai2ny4w)" style="stroke:#a80036;stroke-width:1.5"/><ellipse cx="509.749" cy="165" fill="#B4A7E5" rx="11" ry="11" style="stroke:#a80036;stroke-width:1"/><path d="M505.6764,160.7651 L505.6764,158.6069 L513.0558,158.6069 L513.0558,160.7651 L510.5905,160.7651 L510.5905,168.8418 L513.0558,168.8418 L513.0558,171 L505.6764,171 L505.6764,168.8418 L508.1418,168.8418 L508.1418,160.7651 Z"/><text x="523.749" y="169.535" fill="#000" font-family="sans-serif" font-size="12" font-style="italic" lengthAdjust="spacingAndGlyphs" textLength="78">SegmentStore</text><line style="stroke:#a80036;stroke-width:1.5" x1="495.749" x2="603.749" y1="181" y2="181"/><line style="stroke:#a80036;stroke-width:1.5" x1="495.749" x2="603.749" y1="189" y2="189"/><rect id="FileStore" width="80" height="48" x="509.749" y="232" fill="#FEFECE" filter="url(#f1otzl8ai2ny4w)" style="stroke:#a80036;stroke-width:1.5"/><ellipse cx="524.749" cy="248" fill="#ADD1B2" rx="11" ry="11" style="stroke:#a80036;stroke-width:1"/><path d="M527.7218,253.6431 Q527.1408,253.9419 526.5016,254.0913 Q525.8625,254.2407 525.1569,254.2407 Q522.6501,254.2407 521.3302,252.5889 Q520.0104,250.937 520.0104,247.8159 Q520.0104,244.6865 521.3302,243.0347 Q522.6501,241.3828 525.1569,241.3828 Q525.8625,241.3828 526.5099,241.5322 Q527.1574,241.6816 527.7218,241.9805 L527.7218,244.7031 Q527.091,244.1221 526.4975,243.8523 Q525.904,243.5825 525.2731,243.5825 Q523.9284,243.5825 523.2436,244.6492 Q522.5588,245.7158 522.5588,247.8159 Q522.5588,249.9077 523.2436,250.9744 Q523.9284,252.041 525.2731,252.041 Q525.904,252.041 526.4975,251.7712 Q527.091,251.5015 527.7218,250.9204 Z"/><text x="538.749" y="252.535" fill="#000" font-family="sans-serif" font-size="12" lengthAdjust="spacingAndGlyphs" textLength="48">FileStore</text><line style="stroke:#a80036;stroke-width:1.5" x1="510.749" x2="588.749" y1="264" y2="264"/><line style="stroke:#a80036;stroke-width:1.5" x1="510.749" x2="588.749" y1="272" y2="272"/><rect id="Revisions" width="85" height="48" x="93.749" y="356" fill="#FEFECE" filter="url(#f1otzl8ai2ny4w)" style="stroke:#a80036;stroke-width:1.5"/><ellipse cx="108.749" cy="372" fill="#B4A7E5" rx="11" ry="11" style="stroke:#a80036;stroke-width:1"/><path d="M104.6764,367.7651 L104.6764,365.6069 L112.0558,365.6069 L112.0558,367.7651 L109.5905,367.7651 L109.5905,375.8418 L112.0558,375.8418 L112.0558,378 L104.6764,378 L104.6764,375.8418 L107.1418,375.8418 L107.1418,367.7651 Z"/><text x="122.749" y="376.535" fill="#000" font-family="sans-serif" font-size="12" font-style="italic" lengthAdjust="spacingAndGlyphs" textLength="53">Revisions</text><line style="stroke:#a80036;stroke-width:1.5" x1="94.749" x2="177.749" y1="388" y2="388"/><line style="stroke:#a80036;stroke-width:1.5" x1="94.749" x2="177.749" y1="396" y2="396"/><rect id="TarRevisions" width="105" height="48" x="298.249" y="348" fill="#FEFECE" filter="url(#f1otzl8ai2ny4w)" style="stroke:#a80036;stroke-width:1.5"/><ellipse cx="313.249" cy="364" fill="#ADD1B2" rx="11" ry="11" style="stroke:#a80036;stroke-width:1"/><path d="M316.2218,369.6431 Q315.6408,369.9419 315.0016,370.0913 Q314.3625,370.2407 313.6569,370.2407 Q311.1501,370.2407 309.8302,368.5889 Q308.5104,366.937 308.5104,363.8159 Q308.5104,360.6865 309.8302,359.0347 Q311.1501,357.3828 313.6569,357.3828 Q314.3625,357.3828 315.0099,357.5322 Q315.6574,357.6816 316.2218,357.9805 L316.2218,360.7031 Q315.591,360.1221 314.9975,359.8523 Q314.404,359.5825 313.7731,359.5825 Q312.4284,359.5825 311.7436,360.6492 Q311.0588,361.7158 311.0588,363.8159 Q311.0588,365.9077 311.7436,366.9744 Q312.4284,368.041 313.7731,368.041 Q314.404,368.041 314.9975,367.7712 Q315.591,367.5015 316.2218,366.9204 Z"/><text x="327.249" y="368.535" fill="#000" font-family="sans-serif" font-size="12" lengthAdjust="spacingAndGlyphs" textLength="73">TarRevisions</text><line style="stroke:#a80036;stroke-width:1.5" x1="299.249" x2="402.249" y1="380" y2="380"/><line style="stroke:#a80036;stroke-width:1.5" x1="299.249" x2="402.249" y1="388" y2="388"/><rect id="SegmentReader" width="123" height="48" x="74.749" y="439" fill="#FEFECE" filter="url(#f1otzl8ai2ny4w)" style="stroke:#a80036;stroke-width:1.5"/><ellipse cx="89.749" cy="455" fill="#B4A7E5" rx="11" ry="11" style="stroke:#a80036;stroke-width:1"/><path d="M85.6764,450.7651 L85.6764,448.6069 L93.0558,448.6069 L93.0558,450.7651 L90.5905,450.7651 L90.5905,458.8418 L93.0558,458.8418 L93.0558,461 L85.6764,461 L85.6764,458.8418 L88.1418,458.8418 L88.1418,450.7651 Z"/><text x="103.749" y="459.535" fill="#000" font-family="sans-serif" font-size="12" font-style="italic" lengthAdjust="spacingAndGlyphs" textLength="91">SegmentReader</text><line style="stroke:#a80036;stroke-width:1.5" x1="75.749" x2="196.749" y1="471" y2="471"/><line style="stroke:#a80036;stroke-width:1.5" x1="75.749" x2="196.749" y1="479" y2="479"/><rect id="CachingSegmentReader" width="168" height="48" x="266.749" y="434" fill="#FEFECE" filter="url(#f1otzl8ai2ny4w)" style="stroke:#a80036;stroke-width:1.5"/><ellipse cx="281.749" cy="450" fill="#ADD1B2" rx="11" ry="11" style="stroke:#a80036;stroke-width:1"/><path d="M284.7218,455.6431 Q284.1408,455.9419 283.5016,456.0913 Q282.8625,456.2407 282.1569,456.2407 Q279.6501,456.2407 278.3302,454.5889 Q277.0104,452.937 277.0104,449.8159 Q277.0104,446.6865 278.3302,445.0347 Q279.6501,443.3828 282.1569,443.3828 Q282.8625,443.3828 283.5099,443.5322 Q284.1574,443.6816 284.7218,443.9805 L284.7218,446.7031 Q284.091,446.1221 283.4975,445.8523 Q282.904,445.5825 282.2731,445.5825 Q280.9284,445.5825 280.2436,446.6492 Q279.5588,447.7158 279.5588,449.8159 Q279.5588,451.9077 280.2436,452.9744 Q280.9284,454.041 282.2731,454.041 Q282.904,454.041 283.4975,453.7712 Q284.091,453.5015 284.7218,452.9204 Z"/><text x="295.749" y="454.535" fill="#000" font-family="sans-serif" font-size="12" lengthAdjust="spacingAndGlyphs" textLength="136">CachingSegmentReader</text><line style="stroke:#a80036;stroke-width:1.5" x1="267.749" x2="433.749" y1="466" y2="466"/><line style="stroke:#a80036;stroke-width:1.5" x1="267.749" x2="433.749" y1="474" y2="474"/><rect id="SegmentWriter" width="115" height="48" x="78.749" y="190" fill="#FEFECE" filter="url(#f1otzl8ai2ny4w)" style="stroke:#a80036;stroke-width:1.5"/><ellipse cx="93.749" cy="206" fill="#ADD1B2" rx="11" ry="11" style="stroke:#a80036;stroke-width:1"/><path d="M96.7218,211.6431 Q96.1408,211.9419 95.5016,212.0913 Q94.8625,212.2407 94.1569,212.2407 Q91.6501,212.2407 90.3302,210.5889 Q89.0104,208.937 89.0104,205.8159 Q89.0104,202.6865 90.3302,201.0347 Q91.6501,199.3828 94.1569,199.3828 Q94.8625,199.3828 95.5099,199.5322 Q96.1574,199.6816 96.7218,199.9805 L96.7218,202.7031 Q96.091,202.1221 95.4975,201.8523 Q94.904,201.5825 94.2731,201.5825 Q92.9284,201.5825 92.2436,202.6492 Q91.5588,203.7158 91.5588,205.8159 Q91.5588,207.9077 92.2436,208.9744 Q92.9284,210.041 94.2731,210.041 Q94.904,210.041 95.4975,209.7712 Q96.091,209.5015 96.7218,208.9204 Z"/><text x="107.749" y="210.535" fill="#000" font-family="sans-serif" font-size="12" lengthAdjust="spacingAndGlyphs" textLength="83">SegmentWriter</text><line style="stroke:#a80036;stroke-width:1.5" x1="79.749" x2="192.749" y1="222" y2="222"/><line style="stroke:#a80036;stroke-width:1.5" x1="79.749" x2="192.749" y1="230" y2="230"/><rect id="BlobStore" width="86" height="48" x="93.249" y="273" fill="#FEFECE" filter="url(#f1otzl8ai2ny4w)" style="stroke:#a80036;stroke-width:1.5"/><ellipse cx="108.249" cy="289" fill="#B4A7E5" rx="11" ry="11" style="stroke:#a80036;stroke-width:1"/><path d="M104.1764,284.7651 L104.1764,282.6069 L111.5558,282.6069 L111.5558,284.7651 L109.0905,284.7651 L109.0905,292.8418 L111.5558,292.8418 L111.5558,295 L104.1764,295 L104.1764,292.8418 L106.6418,292.8418 L106.6418,284.7651 Z"/><text x="122.249" y="293.535" fill="#000" font-family="sans-serif" font-size="12" font-style="italic" lengthAdjust="spacingAndGlyphs" textLength="54">BlobStore</text><line style="stroke:#a80036;stroke-width:1.5" x1="94.249" x2="178.249" y1="305" y2="305"/><line style="stroke:#a80036;stroke-width:1.5" x1="94.249" x2="178.249" y1="313" y2="313"/><rect id="TarFiles" width="77" height="48" x="664.749" y="232" fill="#FEFECE" filter="url(#f1otzl8ai2ny4w)" style="stroke:#a80036;stroke-width:1.5"/><ellipse cx="679.749" cy="248" fill="#ADD1B2" rx="11" ry="11" style="stroke:#a80036;stroke-width:1"/><path d="M682.7218,253.6431 Q682.1408,253.9419 681.5016,254.0913 Q680.8625,254.2407 680.1569,254.2407 Q677.6501,254.2407 676.3302,252.5889 Q675.0104,250.937 675.0104,247.8159 Q675.0104,244.6865 676.3302,243.0347 Q677.6501,241.3828 680.1569,241.3828 Q680.8625,241.3828 681.5099,241.5322 Q682.1574,241.6816 682.7218,241.9805 L682.7218,244.7031 Q682.091,244.1221 681.4975,243.8523 Q680.904,243.5825 680.2731,243.5825 Q678.9284,243.5825 678.2436,244.6492 Q677.5588,245.7158 677.5588,247.8159 Q677.5588,249.9077 678.2436,250.9744 Q678.9284,252.041 680.2731,252.041 Q680.904,252.041 681.4975,251.7712 Q682.091,251.5015 682.7218,250.9204 Z"/><text x="693.749" y="252.535" fill="#000" font-family="sans-serif" font-size="12" lengthAdjust="spacingAndGlyphs" textLength="45">TarFiles</text><line style="stroke:#a80036;stroke-width:1.5" x1="665.749" x2="740.749" y1="264" y2="264"/><line style="stroke:#a80036;stroke-width:1.5" x1="665.749" x2="740.749" y1="272" y2="272"/><rect id="TarReader" width="94" height="48" x="801.749" y="190" fill="#FEFECE" filter="url(#f1otzl8ai2ny4w)" style="stroke:#a80036;stroke-width:1.5"/><ellipse cx="816.749" cy="206" fill="#ADD1B2" rx="11" ry="11" style="stroke:#a80036;stroke-width:1"/><path d="M819.7218,211.6431 Q819.1408,211.9419 818.5016,212.0913 Q817.8625,212.2407 817.1569,212.2407 Q814.6501,212.2407 813.3302,210.5889 Q812.0104,208.937 812.0104,205.8159 Q812.0104,202.6865 813.3302,201.0347 Q814.6501,199.3828 817.1569,199.3828 Q817.8625,199.3828 818.5099,199.5322 Q819.1574,199.6816 819.7218,199.9805 L819.7218,202.7031 Q819.091,202.1221 818.4975,201.8523 Q817.904,201.5825 817.2731,201.5825 Q815.9284,201.5825 815.2436,202.6492 Q814.5588,203.7158 814.5588,205.8159 Q814.5588,207.9077 815.2436,208.9744 Q815.9284,210.041 817.2731,210.041 Q817.904,210.041 818.4975,209.7712 Q819.091,209.5015 819.7218,208.9204 Z"/><text x="830.749" y="210.535" fill="#000" font-family="sans-serif" font-size="12" lengthAdjust="spacingAndGlyphs" textLength="62">TarReader</text><line style="stroke:#a80036;stroke-width:1.5" x1="802.749" x2="894.749" y1="222" y2="222"/><line style="stroke:#a80036;stroke-width:1.5" x1="802.749" x2="894.749" y1="230" y2="230"/><rect id="TarWriter" width="86" height="48" x="805.749" y="273" fill="#FEFECE" filter="url(#f1otzl8ai2ny4w)" style="stroke:#a80036;stroke-width:1.5"/><ellipse cx="820.749" cy="289" fill="#ADD1B2" rx="11" ry="11" style="stroke:#a80036;stroke-width:1"/><path d="M823.7218,294.6431 Q823.1408,294.9419 822.5016,295.0913 Q821.8625,295.2407 821.1569,295.2407 Q818.6501,295.2407 817.3302,293.5889 Q816.0104,291.937 816.0104,288.8159 Q816.0104,285.6865 817.3302,284.0347 Q818.6501,282.3828 821.1569,282.3828 Q821.8625,282.3828 822.5099,282.5322 Q823.1574,282.6816 823.7218,282.9805 L823.7218,285.7031 Q823.091,285.1221 822.4975,284.8523 Q821.904,284.5825 821.2731,284.5825 Q819.9284,284.5825 819.2436,285.6492 Q818.5588,286.7158 818.5588,288.8159 Q818.5588,290.9077 819.2436,291.9744 Q819.9284,293.041 821.2731,293.041 Q821.904,293.041 822.4975,292.7712 Q823.091,292.5015 823.7218,291.9204 Z"/><text x="834.749" y="293.535" fill="#000" font-family="sans-serif" font-size="12" lengthAdjust="spacingAndGlyphs" textLength="54">TarWriter</text><line style="stroke:#a80036;stroke-width:1.5" x1="806.749" x2="890.749" y1="305" y2="305"/><line style="stroke:#a80036;stroke-width:1.5" x1="806.749" x2="890.749" y1="313" y2="313"/><path id="FileStore-TarFiles" fill="none" d="M590.079,256 C611.3777,256 637.5476,256 659.3551,256" style="stroke:#a80036;stroke-width:1"/><polygon fill="#A80036" points="664.511 256 655.511 252 659.511 256 655.511 260 664.511 256" style="stroke:#a80036;stroke-width:1"/><path id="TarFiles-TarReader" fill="none" d="M754.3723,241.2427 C769.7486,236.8041 786.5426,231.9564 801.6456,227.5968" style="stroke:#a80036;stroke-width:1"/><polygon fill="#A80036" points="741.858 244.855 748.732 247.034 753.387 241.527 746.513 239.348 741.858 244.855" style="stroke:#a80036;stroke-width:1"/><path id="TarFiles-TarWriter" fill="none" d="M754.7683,270.5176 C771.3929,275.2022 789.6386,280.3436 805.5946,284.8397" style="stroke:#a80036;stroke-width:1"/><polygon fill="#A80036" points="741.858 266.88 746.548 272.357 753.408 270.134 748.718 264.657 741.858 266.88" style="stroke:#a80036;stroke-width:1"/><path id="SegmentNodeStore-NodeStore" fill="none" d="M136.2487,106.6836 C136.2487,101.9378 136.2487,97.1919 136.2487,92.4461" style="stroke:#a80036;stroke-width:1"/><polygon fill="none" points="129.249 92.299 136.249 72.299 143.249 92.299 129.249 92.299" style="stroke:#a80036;stroke-width:1"/><path id="FileStore-SegmentStore" fill="none" d="M549.7487,231.6836 C549.7487,226.9378 549.7487,222.1919 549.7487,217.4461" style="stroke:#a80036;stroke-width:1"/><polygon fill="none" points="542.749 217.299 549.749 197.299 556.749 217.299 542.749 217.299" style="stroke:#a80036;stroke-width:1"/><path id="SegmentNodeStore-Revisions" fill="none" d="M65.565,154.5639 C50.4145,163.0928 36.3822,174.4687 27.7487,189.5 C-1.2496,239.9869 -1.2496,270.0131 27.7487,320.5 C40.7849,343.1965 65.9875,357.7663 88.8235,366.8039" style="stroke:#a80036;stroke-width:1"/><polygon fill="#A80036" points="93.655 368.649 86.675 361.701 88.984 366.865 83.82 369.175 93.655 368.649" style="stroke:#a80036;stroke-width:1"/><path id="SegmentNodeStore-SegmentReader" fill="none" d="M65.565,154.5639 C50.4145,163.0928 36.3822,174.4687 27.7487,189.5 C4.0631,230.7374 4.0631,362.2626 27.7487,403.5 C37.2357,420.0173 53.1662,432.2305 69.9388,441.1397" style="stroke:#a80036;stroke-width:1"/><polygon fill="#A80036" points="74.687 443.566 68.493 435.909 70.235 441.291 64.853 443.033 74.687 443.566" style="stroke:#a80036;stroke-width:1"/><path id="SegmentNodeStore-SegmentWriter" fill="none" d="M136.2487,155.2987 C136.2487,165.059 136.2487,174.8193 136.2487,184.5796" style="stroke:#a80036;stroke-width:1"/><polygon fill="#A80036" points="136.249 189.684 140.249 180.684 136.249 184.684 132.249 180.684 136.249 189.684" style="stroke:#a80036;stroke-width:1"/><path id="SegmentNodeStore-BlobStore" fill="none" d="M65.565,154.5639 C50.4145,163.0928 36.3822,174.4687 27.7487,189.5 C17.1234,207.999 17.1234,219.001 27.7487,237.5 C40.685,260.0226 65.6019,274.5425 88.2981,283.5951" style="stroke:#a80036;stroke-width:1"/><polygon fill="#A80036" points="93.102 285.445 86.141 278.478 88.436 283.648 83.266 285.944 93.102 285.445" style="stroke:#a80036;stroke-width:1"/><path id="Revisions-TarRevisions" fill="none" d="M198.9814,377.6603 C230.3998,376.4885 268.0149,375.0856 297.9369,373.9697" style="stroke:#a80036;stroke-width:1"/><polygon fill="none" points="199.13 384.659 178.883 378.41 198.609 370.669 199.13 384.659" style="stroke:#a80036;stroke-width:1"/><path id="SegmentReader-CachingSegmentReader" fill="none" d="M218.0084,461.0942 C233.9471,460.7226 250.683,460.3325 266.6946,459.9593" style="stroke:#a80036;stroke-width:1"/><polygon fill="none" points="218.161 468.092 198.003 461.56 217.835 454.096 218.161 468.092" style="stroke:#a80036;stroke-width:1"/><path id="TarRevisions-FileStore" fill="none" d="M396.5058,345.3275 C429.0527,326.3554 472.5603,300.9942 504.9006,282.1426" style="stroke:#a80036;stroke-width:1"/><polygon fill="#A80036" points="509.588 279.41 499.799 280.487 505.269 281.928 503.827 287.398 509.588 279.41" style="stroke:#a80036;stroke-width:1"/><polygon fill="#A80036" points="391.982 347.965 401.771 346.888 396.301 345.447 397.743 339.977 391.982 347.965" style="stroke:#a80036;stroke-width:1"/><path id="CachingSegmentReader-FileStore" fill="none" d="M409.0675,431.1959 C418.1208,425.8097 427.0204,419.7129 434.7487,413 C478.0794,375.3621 514.5413,318.5444 534.1709,284.5737" style="stroke:#a80036;stroke-width:1"/><polygon fill="#A80036" points="536.712 280.14 528.766 285.959 534.226 284.478 535.707 289.938 536.712 280.14" style="stroke:#a80036;stroke-width:1"/><polygon fill="#A80036" points="404.615 433.783 414.407 432.72 408.939 431.271 410.388 425.803 404.615 433.783" style="stroke:#a80036;stroke-width:1"/><path id="SegmentWriter-FileStore" fill="none" d="M199.2482,220.399 C285.3987,229.1495 437.4806,244.5967 509.6196,251.924" style="stroke:#a80036;stroke-width:1"/><polygon fill="#A80036" points="194.179 219.884 202.729 224.773 199.154 220.389 203.538 216.814 194.179 219.884" style="stroke:#a80036;stroke-width:1"/><path id="BlobStore-FileStore" fill="none" d="M184.6344,292.2024 C267.0254,284.033 433.0497,267.5711 509.5169,259.9891" style="stroke:#a80036;stroke-width:1"/><polygon fill="#A80036" points="179.33 292.728 188.681 295.821 184.306 292.235 187.892 287.86 179.33 292.728" style="stroke:#a80036;stroke-width:1"/></g></svg>